# xmcd
#
# Track frame offsets:
# 150
# 14340
# 30120
# 42665
# 57922
# 75475
# 88640
# 107847
# 125060
# 146347
# 159320
# 177522
# 189157
#
# Disc length: 2700 seconds
#
#
# Revision: 0
# Processed by: cddbd v1.5.2PL0 Copyright (c) Steve Scherf et al.
# Submitted via: FreeRIP 2.70 
#
DISCID=9f0a8a0d
DTITLE=Various Artist - Honed on the Range: On the Border
DYEAR=1997
DGENRE=Latin
TTITLE0=Medalla de Dios - Narciso Martinez with Lydia Mendoza
TTITLE1=Atotonilco - Tony de la Rosa
TTITLE2=Destino Cruel - Conjunto Bernal
TTITLE3=El Corrido de Santiago Jimenez - Santiago Jimenez Jf.
TTITLE4=Bailando Con Los Farias - Los Hermanos Farias
TTITLE5=Yakity Yak - Steve Jordan
TTITLE6=El Cool Dude/La Piedrera - Los Pinkys
TTITLE7=Dora - Ybarra y su Conjunto
TTITLE8=Rueda de Fuego - Mingo Saldivar y Sus Tremendos Cuatro Espadas
TTITLE9=Love Me with All Your Heart - Johnny Rodriguez
TTITLE10=West Side of Town - Tish Hinojosa
TTITLE11=Volver - Texas Tornadoes
TTITLE12=Born on the Border - Gary Hobbs
EXTD=Produced by Texas Monthly Magazine
EXTT0=
EXTT1=
EXTT2=
EXTT3=
EXTT4=
EXTT5=
EXTT6=
EXTT7=
EXTT8=
EXTT9=
EXTT10=
EXTT11=
EXTT12=
PLAYORDER=
